<?xml version="1.0" encoding="utf-8"?>
<!-- Generator: Adobe Illustrator 21.1.0, SVG Export Plug-In . SVG Version: 6.00 Build 0)  -->
<svg version="1.1" id="Layer_1" xmlns="http://www.w3.org/2000/svg" xmlns:xlink="http://www.w3.org/1999/xlink" x="0px" y="0px"
	 viewBox="0 0 181 48" style="enable-background:new 0 0 181 48;" xml:space="preserve">
<style type="text/css">
	.st0{fill:#FFFFFF;}
	.st1{fill:#A1D8EE;}
</style>
<g>
	<path class="st0" d="M84.4,12.6v12.3h-1.6V12.6H84.4z"/>
	<path class="st0" d="M87.5,18.5c0-0.9,0-1.7-0.1-2.4h1.4l0.1,1.5h0c0.4-0.8,1.5-1.7,2.9-1.7c1.2,0,3.1,0.7,3.1,3.8v5.3h-1.6v-5.1
		c0-1.4-0.5-2.6-2-2.6c-1.1,0-1.9,0.7-2.2,1.6c-0.1,0.2-0.1,0.5-0.1,0.7v5.3h-1.6V18.5z"/>
	<path class="st0" d="M99.6,13.6v2.5h2.3v1.2h-2.3v4.8c0,1.1,0.3,1.7,1.2,1.7c0.4,0,0.7-0.1,0.9-0.1l0.1,1.2
		c-0.3,0.1-0.8,0.2-1.4,0.2c-0.7,0-1.4-0.2-1.7-0.7c-0.5-0.5-0.6-1.3-0.6-2.3v-4.8h-1.4v-1.2h1.4V14L99.6,13.6z"/>
	<path class="st0" d="M104.7,20.8c0,2.2,1.4,3.1,3,3.1c1.1,0,1.8-0.2,2.4-0.5l0.3,1.1c-0.6,0.3-1.5,0.5-2.9,0.5
		c-2.7,0-4.3-1.8-4.3-4.5s1.6-4.8,4.1-4.8c2.9,0,3.6,2.5,3.6,4.2c0,0.3,0,0.6-0.1,0.7H104.7z M109.4,19.7c0-1-0.4-2.6-2.2-2.6
		c-1.6,0-2.3,1.5-2.5,2.6H109.4z"/>
	<path class="st0" d="M113.1,18.9c0-1,0-1.9-0.1-2.8h1.4l0.1,1.7h0.1c0.4-1.2,1.4-1.9,2.4-1.9c0.2,0,0.3,0,0.5,0.1v1.5
		c-0.2,0-0.3-0.1-0.5-0.1c-1.1,0-1.9,0.9-2.2,2.1c0,0.2-0.1,0.5-0.1,0.7v4.7h-1.6V18.9z"/>
	<path class="st0" d="M119.3,18.5c0-0.9,0-1.7-0.1-2.4h1.4l0.1,1.5h0c0.4-0.8,1.5-1.7,2.9-1.7c1.2,0,3.1,0.7,3.1,3.8v5.3h-1.6v-5.1
		c0-1.4-0.5-2.6-2-2.6c-1.1,0-1.9,0.7-2.2,1.6c-0.1,0.2-0.1,0.5-0.1,0.7v5.3h-1.6V18.5z"/>
	<path class="st0" d="M134.5,24.9l-0.1-1.1h-0.1c-0.5,0.7-1.4,1.3-2.7,1.3c-1.8,0-2.7-1.3-2.7-2.5c0-2.1,1.9-3.3,5.3-3.3v-0.2
		c0-0.7-0.2-2-2-2c-0.8,0-1.7,0.3-2.3,0.7l-0.4-1.1c0.7-0.5,1.8-0.8,2.9-0.8c2.7,0,3.4,1.8,3.4,3.6v3.3c0,0.8,0,1.5,0.1,2.1H134.5z
		 M134.3,20.4c-1.8,0-3.7,0.3-3.7,2c0,1,0.7,1.5,1.5,1.5c1.2,0,1.9-0.7,2.1-1.5c0.1-0.2,0.1-0.3,0.1-0.5V20.4z"/>
	<path class="st0" d="M140.5,13.6v2.5h2.3v1.2h-2.3v4.8c0,1.1,0.3,1.7,1.2,1.7c0.4,0,0.7-0.1,0.9-0.1l0.1,1.2
		c-0.3,0.1-0.8,0.2-1.4,0.2c-0.7,0-1.4-0.2-1.7-0.7c-0.5-0.5-0.6-1.3-0.6-2.3v-4.8h-1.4v-1.2h1.4V14L140.5,13.6z"/>
	<path class="st0" d="M146.5,13.6c0,0.5-0.4,1-1,1c-0.6,0-1-0.4-1-1c0-0.6,0.4-1,1-1C146.1,12.6,146.5,13.1,146.5,13.6z M144.7,24.9
		v-8.8h1.6v8.8H144.7z"/>
	<path class="st0" d="M157.2,20.5c0,3.3-2.3,4.7-4.4,4.7c-2.4,0-4.2-1.8-4.2-4.5c0-3,1.9-4.7,4.4-4.7
		C155.5,15.9,157.2,17.8,157.2,20.5z M150.2,20.5c0,1.9,1.1,3.4,2.7,3.4c1.5,0,2.7-1.4,2.7-3.4c0-1.5-0.7-3.4-2.6-3.4
		C151,17.1,150.2,18.9,150.2,20.5z"/>
	<path class="st0" d="M159.4,18.5c0-0.9,0-1.7-0.1-2.4h1.4l0.1,1.5h0c0.4-0.8,1.5-1.7,2.9-1.7c1.2,0,3.1,0.7,3.1,3.8v5.3h-1.6v-5.1
		c0-1.4-0.5-2.6-2-2.6c-1.1,0-1.9,0.7-2.2,1.6c-0.1,0.2-0.1,0.5-0.1,0.7v5.3h-1.6V18.5z"/>
	<path class="st0" d="M174.6,24.9l-0.1-1.1h-0.1c-0.5,0.7-1.4,1.3-2.7,1.3c-1.8,0-2.7-1.3-2.7-2.5c0-2.1,1.9-3.3,5.3-3.3v-0.2
		c0-0.7-0.2-2-2-2c-0.8,0-1.7,0.3-2.3,0.7l-0.4-1.1c0.7-0.5,1.8-0.8,2.9-0.8c2.7,0,3.4,1.8,3.4,3.6v3.3c0,0.8,0,1.5,0.1,2.1H174.6z
		 M174.3,20.4c-1.8,0-3.7,0.3-3.7,2c0,1,0.7,1.5,1.5,1.5c1.2,0,1.9-0.7,2.1-1.5c0.1-0.2,0.1-0.3,0.1-0.5V20.4z"/>
	<path class="st0" d="M178.6,12h1.6v13h-1.6V12z"/>
	<path class="st0" d="M84.1,33.5v6.5c0,2.4,1.1,3.5,2.5,3.5c1.6,0,2.7-1.1,2.7-3.5v-6.5h1.4v6.4c0,3.4-1.8,4.7-4.1,4.7
		c-2.2,0-3.9-1.3-3.9-4.7v-6.4H84.1z"/>
	<path class="st0" d="M93.1,38.7c0-0.8,0-1.5-0.1-2.1h1.3l0.1,1.3h0c0.4-0.7,1.3-1.5,2.6-1.5c1.1,0,2.8,0.6,2.8,3.3v4.7h-1.4v-4.5
		c0-1.3-0.5-2.3-1.8-2.3c-0.9,0-1.7,0.7-1.9,1.5c-0.1,0.2-0.1,0.4-0.1,0.7v4.7h-1.4V38.7z"/>
	<path class="st0" d="M103.7,34.3c0,0.5-0.3,0.9-0.9,0.9c-0.5,0-0.9-0.4-0.9-0.9c0-0.5,0.4-0.9,0.9-0.9
		C103.4,33.5,103.7,33.8,103.7,34.3z M102.1,44.4v-7.9h1.4v7.9H102.1z"/>
	<path class="st0" d="M106.5,36.6L108,41c0.3,0.7,0.5,1.4,0.6,2h0c0.2-0.6,0.4-1.3,0.7-2l1.5-4.4h1.5l-3.1,7.9h-1.4l-3-7.9H106.5z"
		/>
	<path class="st0" d="M114.3,40.7c0,1.9,1.3,2.7,2.7,2.7c1,0,1.6-0.2,2.2-0.4l0.2,1c-0.5,0.2-1.4,0.5-2.6,0.5c-2.4,0-3.9-1.6-3.9-4
		s1.4-4.2,3.7-4.2c2.6,0,3.2,2.3,3.2,3.7c0,0.3,0,0.5,0,0.7H114.3z M118.5,39.7c0-0.9-0.4-2.3-2-2.3c-1.4,0-2.1,1.3-2.2,2.3H118.5z"
		/>
	<path class="st0" d="M121.7,39c0-0.9,0-1.7-0.1-2.4h1.2l0,1.5h0.1c0.4-1.1,1.2-1.7,2.2-1.7c0.2,0,0.3,0,0.4,0v1.3
		c-0.1,0-0.3,0-0.5,0c-1,0-1.7,0.8-1.9,1.8c0,0.2-0.1,0.4-0.1,0.7v4.2h-1.4V39z"/>
	<path class="st0" d="M126.8,42.9c0.4,0.3,1.2,0.6,1.9,0.6c1,0,1.5-0.5,1.5-1.2c0-0.7-0.4-1.1-1.5-1.4c-1.4-0.5-2.1-1.3-2.1-2.2
		c0-1.3,1-2.3,2.7-2.3c0.8,0,1.5,0.2,1.9,0.5l-0.4,1c-0.3-0.2-0.9-0.5-1.6-0.5c-0.8,0-1.3,0.5-1.3,1.1c0,0.6,0.5,0.9,1.5,1.3
		c1.4,0.5,2.1,1.2,2.1,2.4c0,1.4-1.1,2.4-2.9,2.4c-0.9,0-1.7-0.2-2.2-0.5L126.8,42.9z"/>
	<path class="st0" d="M135,34.3c0,0.5-0.3,0.9-0.9,0.9c-0.5,0-0.9-0.4-0.9-0.9c0-0.5,0.4-0.9,0.9-0.9C134.6,33.5,135,33.8,135,34.3z
		 M133.4,44.4v-7.9h1.4v7.9H133.4z"/>
	<path class="st0" d="M138.9,34.3v2.3h2v1.1h-2v4.2c0,1,0.3,1.5,1.1,1.5c0.4,0,0.6,0,0.8-0.1l0.1,1.1c-0.3,0.1-0.7,0.2-1.3,0.2
		c-0.7,0-1.2-0.2-1.5-0.6c-0.4-0.4-0.6-1.1-0.6-2v-4.3h-1.2v-1.1h1.2v-1.9L138.9,34.3z"/>
	<path class="st0" d="M143.2,36.6l1.7,4.6c0.2,0.5,0.4,1.1,0.5,1.6h0c0.1-0.5,0.3-1.1,0.5-1.6l1.6-4.6h1.5l-2.1,5.6
		c-1,2.7-1.7,4.1-2.7,4.9c-0.7,0.6-1.4,0.9-1.8,0.9l-0.4-1.2c0.4-0.1,0.8-0.3,1.2-0.7c0.4-0.3,0.9-0.9,1.2-1.6
		c0.1-0.1,0.1-0.3,0.1-0.3c0-0.1,0-0.2-0.1-0.4l-2.9-7.2H143.2z"/>
	<path class="st0" d="M156.3,41l-1.1,3.4h-1.5l3.7-10.9h1.7l3.7,10.9h-1.5l-1.2-3.4H156.3z M159.9,39.9l-1.1-3.1
		c-0.2-0.7-0.4-1.4-0.6-2h0c-0.2,0.6-0.3,1.3-0.6,2l-1.1,3.2H159.9z"/>
	<path class="st0" d="M164.3,39.1c0-1,0-1.8-0.1-2.6h1.3l0.1,1.3h0c0.6-1,1.5-1.5,2.8-1.5c1.9,0,3.3,1.6,3.3,4
		c0,2.8-1.7,4.2-3.6,4.2c-1,0-1.9-0.5-2.4-1.2h0v4.3h-1.4V39.1z M165.8,41.2c0,0.2,0,0.4,0.1,0.6c0.3,1,1.1,1.7,2.1,1.7
		c1.5,0,2.4-1.2,2.4-3c0-1.6-0.8-2.9-2.3-2.9c-1,0-1.9,0.7-2.2,1.8c0,0.2-0.1,0.4-0.1,0.6V41.2z"/>
	<path class="st0" d="M173.6,39.1c0-1,0-1.8-0.1-2.6h1.3l0.1,1.3h0c0.6-1,1.5-1.5,2.8-1.5c1.9,0,3.3,1.6,3.3,4
		c0,2.8-1.7,4.2-3.6,4.2c-1,0-1.9-0.5-2.4-1.2h0v4.3h-1.4V39.1z M175,41.2c0,0.2,0,0.4,0.1,0.6c0.3,1,1.1,1.7,2.1,1.7
		c1.5,0,2.4-1.2,2.4-3c0-1.6-0.8-2.9-2.3-2.9c-1,0-1.9,0.7-2.2,1.8c0,0.2-0.1,0.4-0.1,0.6V41.2z"/>
</g>
<g>
	<path class="st1" d="M5.7,0v44.4H0V0H5.7z"/>
</g>
<g>
	<path class="st1" d="M16,0v26.3c0,9.9,4.4,14.2,10.3,14.2c6.6,0,10.8-4.3,10.8-14.2V0h5.8v25.9c0,13.6-7.2,19.2-16.8,19.2
		c-9.1,0-15.9-5.2-15.9-19V0H16z"/>
</g>
<g>
	<path class="st1" d="M51.6,30.4l-4.6,14h-5.9L56.2,0h6.9l15.2,44.4h-6.1l-4.7-14H51.6z M66.2,26l-4.3-12.8c-1-2.9-1.6-5.5-2.3-8.1
		h-0.1c-0.7,2.6-1.4,5.3-2.2,8L52.8,26H66.2z"/>
</g>
</svg>
