<?xml version="1.0" encoding="utf-8"?>
<!-- Generator: Adobe Illustrator 21.1.0, SVG Export Plug-In . SVG Version: 6.00 Build 0)  -->
<svg version="1.1" id="Layer_1" xmlns="http://www.w3.org/2000/svg" xmlns:xlink="http://www.w3.org/1999/xlink" x="0px" y="0px"
	 viewBox="0 0 121 35" enable-background="new 0 0 121 35" xml:space="preserve">
<g>
	<path d="M56.1899414,10.2724609v7.6928711h-0.9926758v-7.6928711H56.1899414z"/>
	<path d="M58.1132813,13.9365234c0-0.5708008-0.0112305-1.0390625-0.0454102-1.4951172h0.8901367l0.0571289,0.9130859h0.0229492
		c0.2739258-0.5253906,0.9130859-1.0390625,1.8261719-1.0390625c0.7646484,0,1.9516602,0.456543,1.9516602,2.3515625v3.2983398
		h-1.0043945v-3.1845703c0-0.8901367-0.3310547-1.6318359-1.2783203-1.6318359
		c-0.6621094,0-1.1757813,0.4677734-1.3466797,1.0268555c-0.0458984,0.1259766-0.0688477,0.296875-0.0688477,0.4682617v3.3212891
		h-1.0043945V13.9365234z"/>
	<path d="M65.7202148,10.8544922v1.5869141h1.4379883v0.7646484h-1.4379883v2.9785156
		c0,0.6850586,0.1938477,1.0732422,0.753418,1.0732422c0.2626953,0,0.456543-0.0341797,0.5820313-0.0683594l0.0458984,0.7529297
		c-0.1943359,0.0800781-0.5024414,0.137207-0.890625,0.137207c-0.4677734,0-0.8447266-0.1484375-1.0839844-0.4223633
		c-0.2856445-0.296875-0.3881836-0.7875977-0.3881836-1.4379883v-3.0131836h-0.855957v-0.7646484h0.855957v-1.3242188
		L65.7202148,10.8544922z"/>
	<path d="M68.8876953,15.3857422c0.0224609,1.3583984,0.8901367,1.9174805,1.8945313,1.9174805
		c0.7192383,0,1.152832-0.1254883,1.5292969-0.2851563l0.1713867,0.7192383
		c-0.3540039,0.159668-0.9589844,0.3422852-1.8374023,0.3422852c-1.7006836,0-2.7167969-1.1186523-2.7167969-2.7851563
		s0.9814453-2.9790039,2.5908203-2.9790039c1.8037109,0,2.2827148,1.5869141,2.2827148,2.6025391
		c0,0.2055664-0.0224609,0.3652344-0.0341797,0.4677734H68.8876953z M71.8320313,14.6669922
		c0.0117188-0.6391602-0.262207-1.6323242-1.3920898-1.6323242c-1.0161133,0-1.4609375,0.9360352-1.5410156,1.6323242H71.8320313z"
		/>
	<path d="M74.1547852,14.1645508c0-0.6503906-0.0112305-1.2099609-0.0454102-1.7231445h0.8789063l0.0341797,1.0839844h0.0458984
		c0.2509766-0.7416992,0.8554688-1.2099609,1.5292969-1.2099609c0.1132813,0,0.1933594,0.0117188,0.2851563,0.0341797v0.9477539
		c-0.1025391-0.0229492-0.2050781-0.034668-0.3417969-0.034668c-0.7080078,0-1.2109375,0.5366211-1.3476563,1.2900391
		c-0.0224609,0.1367188-0.0449219,0.296875-0.0449219,0.4677734v2.9448242h-0.9936523V14.1645508z"/>
	<path d="M78.0410156,13.9365234c0-0.5708008-0.0117188-1.0390625-0.0458984-1.4951172h0.8896484l0.0576172,0.9130859h0.0224609
		c0.2744141-0.5253906,0.9140625-1.0390625,1.8261719-1.0390625c0.765625,0,1.9521484,0.456543,1.9521484,2.3515625v3.2983398
		h-1.0048828v-3.1845703c0-0.8901367-0.3300781-1.6318359-1.2773438-1.6318359
		c-0.6621094,0-1.1757813,0.4677734-1.3476563,1.0268555c-0.0449219,0.1259766-0.0683594,0.296875-0.0683594,0.4682617v3.3212891
		h-1.0039063V13.9365234z"/>
	<path d="M87.5419922,17.965332l-0.0800781-0.6962891h-0.0341797c-0.3085938,0.4335938-0.9013672,0.8217773-1.6894531,0.8217773
		c-1.1181641,0-1.6894531-0.7875977-1.6894531-1.5864258c0-1.3354492,1.1875-2.065918,3.3222656-2.0541992v-0.1142578
		c0-0.456543-0.1259766-1.2783203-1.2558594-1.2783203c-0.5136719,0-1.0498047,0.159668-1.4375,0.4106445l-0.2285156-0.6616211
		c0.4560547-0.296875,1.1181641-0.4912109,1.8144531-0.4912109c1.6894531,0,2.0996094,1.152832,2.0996094,2.2602539v2.065918
		c0,0.4790039,0.0234375,0.9472656,0.0917969,1.3237305H87.5419922z M87.3935547,15.1459961
		c-1.0957031-0.0224609-2.3398438,0.1713867-2.3398438,1.2441406c0,0.6508789,0.4335938,0.9589844,0.9472656,0.9589844
		c0.7197266,0,1.1757813-0.456543,1.3349609-0.9248047c0.0351563-0.1025391,0.0576172-0.2167969,0.0576172-0.3193359V15.1459961z"/>
	<path d="M91.2578125,10.8544922v1.5869141h1.4375v0.7646484h-1.4375v2.9785156
		c0,0.6850586,0.1933594,1.0732422,0.7529297,1.0732422c0.2626953,0,0.4560547-0.0341797,0.5820313-0.0683594l0.0458984,0.7529297
		c-0.1943359,0.0800781-0.5019531,0.137207-0.890625,0.137207c-0.4677734,0-0.8447266-0.1484375-1.0839844-0.4223633
		c-0.2851563-0.296875-0.3886719-0.7875977-0.3886719-1.4379883v-3.0131836h-0.8554688v-0.7646484h0.8554688v-1.3242188
		L91.2578125,10.8544922z"/>
	<path d="M95.0527344,10.8886719c0.0107422,0.3427734-0.2402344,0.6166992-0.6396484,0.6166992
		c-0.3535156,0-0.6044922-0.2739258-0.6044922-0.6166992c0-0.3535156,0.2617188-0.6274414,0.6269531-0.6274414
		C94.8125,10.2612305,95.0527344,10.5351563,95.0527344,10.8886719z M93.9335938,17.965332v-5.5239258H94.9375v5.5239258H93.9335938
		z"/>
	<path d="M101.7128906,15.1577148c0,2.0429688-1.4160156,2.9331055-2.7519531,2.9331055
		c-1.4941406,0-2.6474609-1.0957031-2.6474609-2.8417969c0-1.8491211,1.2099609-2.9335938,2.7392578-2.9335938
		C100.6386719,12.3154297,101.7128906,13.4682617,101.7128906,15.1577148z M97.3300781,15.2148438
		c0,1.2094727,0.6953125,2.1225586,1.6777344,2.1225586c0.9580078,0,1.6777344-0.9013672,1.6777344-2.1455078
		c0-0.9360352-0.46875-2.1230469-1.6552734-2.1230469C97.8427734,13.0688477,97.3300781,14.1645508,97.3300781,15.2148438z"/>
	<path d="M103.0878906,13.9365234c0-0.5708008-0.0117188-1.0390625-0.0458984-1.4951172h0.8896484l0.0576172,0.9130859h0.0224609
		c0.2744141-0.5253906,0.9140625-1.0390625,1.8261719-1.0390625c0.765625,0,1.9521484,0.456543,1.9521484,2.3515625v3.2983398
		h-1.0048828v-3.1845703c0-0.8901367-0.3300781-1.6318359-1.2773438-1.6318359
		c-0.6621094,0-1.1757813,0.4677734-1.3476563,1.0268555c-0.0449219,0.1259766-0.0683594,0.296875-0.0683594,0.4682617v3.3212891
		h-1.0039063V13.9365234z"/>
	<path d="M112.5888672,17.965332l-0.0800781-0.6962891h-0.0341797c-0.3085938,0.4335938-0.9013672,0.8217773-1.6894531,0.8217773
		c-1.1181641,0-1.6894531-0.7875977-1.6894531-1.5864258c0-1.3354492,1.1875-2.065918,3.3222656-2.0541992v-0.1142578
		c0-0.456543-0.1259766-1.2783203-1.2558594-1.2783203c-0.5136719,0-1.0498047,0.159668-1.4375,0.4106445l-0.2285156-0.6616211
		c0.4560547-0.296875,1.1181641-0.4912109,1.8144531-0.4912109c1.6894531,0,2.0996094,1.152832,2.0996094,2.2602539v2.065918
		c0,0.4790039,0.0234375,0.9472656,0.0917969,1.3237305H112.5888672z M112.4404297,15.1459961
		c-1.0957031-0.0224609-2.3398438,0.1713867-2.3398438,1.2441406c0,0.6508789,0.4335938,0.9589844,0.9472656,0.9589844
		c0.7197266,0,1.1757813-0.456543,1.3349609-0.9248047c0.0351563-0.1025391,0.0576172-0.2167969,0.0576172-0.3193359V15.1459961z"/>
	<path d="M115.1396484,9.8618164h1.0048828v8.1035156h-1.0048828V9.8618164z"/>
	<path d="M55.9833984,23.2988281v4.0488281c0,1.5322266,0.6801758,2.1816406,1.5932617,2.1816406
		c1.0146484,0,1.6640625-0.6694336,1.6640625-2.1816406v-4.0488281h0.8930664v3.987793
		c0,2.1005859-1.105957,2.9633789-2.5874023,2.9633789c-1.4003906,0-2.4555664-0.8017578-2.4555664-2.9223633v-4.0288086H55.9833984
		z"/>
	<path d="M61.6333008,26.5561523c0-0.5073242-0.0102539-0.9233398-0.0405273-1.3291016h0.7915039l0.0507813,0.8115234h0.0200195
		c0.2436523-0.4667969,0.8120117-0.9233398,1.6235352-0.9233398c0.6801758,0,1.7353516,0.40625,1.7353516,2.090332v2.9326172
		h-0.8930664v-2.8310547c0-0.7915039-0.2939453-1.4511719-1.1362305-1.4511719
		c-0.5888672,0-1.0454102,0.4160156-1.1977539,0.9135742c-0.0405273,0.1113281-0.0605469,0.2636719-0.0605469,0.4160156v2.9526367
		h-0.8930664V26.5561523z"/>
	<path d="M68.2578125,23.847168c0.0097656,0.3041992-0.2133789,0.5478516-0.5683594,0.5478516
		c-0.3144531,0-0.5380859-0.2436523-0.5380859-0.5478516c0-0.3149414,0.2333984-0.5581055,0.5581055-0.5581055
		C68.0444336,23.2890625,68.2578125,23.5322266,68.2578125,23.847168z M67.2631836,30.1381836v-4.9111328H68.15625v4.9111328
		H67.2631836z"/>
	<path d="M69.9819336,25.2270508l0.9638672,2.7597656c0.1621094,0.4467773,0.2939453,0.8525391,0.3955078,1.2583008h0.0307617
		c0.1113281-0.4057617,0.253418-0.8115234,0.4160156-1.2583008l0.9536133-2.7597656h0.9335938l-1.9277344,4.9111328h-0.8525391
		l-1.8671875-4.9111328H69.9819336z"/>
	<path d="M74.9116211,27.8447266c0.0205078,1.2075195,0.7915039,1.7050781,1.684082,1.7050781
		c0.6396484,0,1.0253906-0.1118164,1.3603516-0.2539063l0.1513672,0.6391602
		c-0.3144531,0.1420898-0.8515625,0.3046875-1.6328125,0.3046875c-1.512207,0-2.4150391-0.9946289-2.4150391-2.4760742
		s0.8725586-2.6484375,2.3037109-2.6484375c1.6025391,0,2.0292969,1.4106445,2.0292969,2.3134766
		c0,0.1826172-0.0205078,0.324707-0.03125,0.4160156H74.9116211z M77.5292969,27.2055664
		c0.0107422-0.5683594-0.2324219-1.4506836-1.2373047-1.4506836c-0.9033203,0-1.2988281,0.8320313-1.3701172,1.4506836H77.5292969z"
		/>
	<path d="M79.4960938,26.7592773c0-0.5786133-0.0097656-1.0756836-0.0400391-1.5322266h0.78125l0.0302734,0.9638672h0.0410156
		c0.2226563-0.659668,0.7607422-1.0756836,1.359375-1.0756836c0.1015625,0,0.1728516,0.0102539,0.2539063,0.0307617v0.8417969
		c-0.0917969-0.0200195-0.1826172-0.0302734-0.3046875-0.0302734c-0.6289063,0-1.0751953,0.4770508-1.1972656,1.1464844
		c-0.0195313,0.1220703-0.0410156,0.2641602-0.0410156,0.4160156v2.6181641h-0.8828125V26.7592773z"/>
	<path d="M82.6914063,29.2250977c0.2636719,0.1723633,0.7304688,0.3549805,1.1777344,0.3549805
		c0.6484375,0,0.953125-0.324707,0.953125-0.7304688c0-0.4262695-0.2539063-0.659668-0.9130859-0.9033203
		c-0.8828125-0.3144531-1.2988281-0.8012695-1.2988281-1.3901367c0-0.7915039,0.6396484-1.440918,1.6943359-1.440918
		c0.4980469,0,0.9335938,0.1420898,1.2080078,0.3046875l-0.2236328,0.6494141
		c-0.1923828-0.1220703-0.5478516-0.2841797-1.0039063-0.2841797c-0.5273438,0-0.8222656,0.3041992-0.8222656,0.6694336
		c0,0.40625,0.2949219,0.5888672,0.9335938,0.8320313c0.8525391,0.324707,1.2890625,0.7509766,1.2890625,1.4819336
		c0,0.8623047-0.6699219,1.4711914-1.8369141,1.4711914c-0.5380859,0-1.0351563-0.1318359-1.3798828-0.3349609
		L82.6914063,29.2250977z"/>
	<path d="M87.8251953,23.847168c0.0097656,0.3041992-0.2138672,0.5478516-0.5683594,0.5478516
		c-0.3144531,0-0.5380859-0.2436523-0.5380859-0.5478516c0-0.3149414,0.2333984-0.5581055,0.5585938-0.5581055
		C87.6113281,23.2890625,87.8251953,23.5322266,87.8251953,23.847168z M86.8300781,30.1381836v-4.9111328h0.8935547v4.9111328
		H86.8300781z"/>
	<path d="M90.2792969,23.8164063v1.4106445h1.2792969v0.6796875h-1.2792969v2.6484375
		c0,0.6088867,0.1728516,0.9541016,0.6699219,0.9541016c0.2333984,0,0.40625-0.0307617,0.5175781-0.0610352l0.0410156,0.6694336
		c-0.1728516,0.0712891-0.4472656,0.1220703-0.7919922,0.1220703c-0.4160156,0-0.7509766-0.1318359-0.9638672-0.3754883
		c-0.2539063-0.2636719-0.3447266-0.7001953-0.3447266-1.2788086v-2.6787109h-0.7607422v-0.6796875h0.7607422v-1.1772461
		L90.2792969,23.8164063z"/>
	<path d="M92.9775391,25.2270508l1.0751953,2.9018555c0.1113281,0.324707,0.234375,0.7104492,0.3144531,1.0048828h0.0214844
		c0.0908203-0.2944336,0.1914063-0.6699219,0.3144531-1.0249023l0.9736328-2.8818359h0.9433594L95.28125,28.7275391
		c-0.6396484,1.6845703-1.0761719,2.546875-1.6845703,3.074707C93.1601563,32.1879883,92.7236328,32.340332,92.5,32.3808594
		l-0.2226563-0.7509766c0.2226563-0.0712891,0.5175781-0.2133789,0.78125-0.4365234
		c0.2441406-0.1928711,0.5478516-0.5375977,0.7509766-0.9941406c0.0400391-0.0913086,0.0712891-0.1625977,0.0712891-0.2133789
		s-0.0205078-0.121582-0.0605469-0.2333984l-1.8164063-4.5253906H92.9775391z"/>
	<path d="M101.15625,27.9868164l-0.7109375,2.1513672h-0.9130859l2.3232422-6.8393555h1.0654297l2.3339844,6.8393555h-0.9433594
		l-0.7314453-2.1513672H101.15625z M103.3984375,27.296875l-0.6699219-1.9682617
		c-0.1523438-0.4467773-0.2539063-0.8525391-0.3554688-1.2480469h-0.0195313
		c-0.1015625,0.4057617-0.2138672,0.8217773-0.3457031,1.237793l-0.6699219,1.9785156H103.3984375z"/>
	<path d="M106.1972656,26.8300781c0-0.6289063-0.0214844-1.1362305-0.0410156-1.6030273h0.8017578l0.0400391,0.8422852h0.0205078
		c0.3652344-0.5986328,0.9443359-0.9541016,1.7451172-0.9541016c1.1875,0,2.0800781,1.0048828,2.0800781,2.4960938
		c0,1.765625-1.0751953,2.6386719-2.2324219,2.6386719c-0.6484375,0-1.2167969-0.2841797-1.5117188-0.7714844h-0.0195313v2.6689453
		h-0.8828125V26.8300781z M107.0800781,28.1391602c0,0.1318359,0.0195313,0.2539063,0.0400391,0.3652344
		c0.1630859,0.6191406,0.7001953,1.0454102,1.3388672,1.0454102c0.9443359,0,1.4921875-0.7714844,1.4921875-1.8974609
		c0-0.984375-0.5175781-1.8266602-1.4609375-1.8266602c-0.609375,0-1.1777344,0.4365234-1.3496094,1.105957
		c-0.03125,0.1118164-0.0605469,0.2436523-0.0605469,0.3652344V28.1391602z"/>
	<path d="M111.96875,26.8300781c0-0.6289063-0.0205078-1.1362305-0.0410156-1.6030273h0.8027344l0.0400391,0.8422852h0.0205078
		c0.3652344-0.5986328,0.9433594-0.9541016,1.7451172-0.9541016c1.1865234,0,2.0800781,1.0048828,2.0800781,2.4960938
		c0,1.765625-1.0751953,2.6386719-2.2324219,2.6386719c-0.6494141,0-1.2177734-0.2841797-1.5117188-0.7714844h-0.0205078v2.6689453
		H111.96875V26.8300781z M112.8515625,28.1391602c0,0.1318359,0.0205078,0.2539063,0.0410156,0.3652344
		c0.1621094,0.6191406,0.6992188,1.0454102,1.3388672,1.0454102c0.9443359,0,1.4912109-0.7714844,1.4912109-1.8974609
		c0-0.984375-0.5175781-1.8266602-1.4609375-1.8266602c-0.6083984,0-1.1767578,0.4365234-1.3496094,1.105957
		c-0.0302734,0.1118164-0.0605469,0.2436523-0.0605469,0.3652344V28.1391602z"/>
</g>
<g>
	<path fill="#2BBFED" d="M6.96875,2.359375v27.7783203H3.3833008V2.359375H6.96875z"/>
</g>
<g>
	<path fill="#2BBFED" d="M13.3681641,2.359375v16.4443359c0,6.2236328,2.7612305,8.8613281,6.4707031,8.8613281
		c4.121582,0,6.7592773-2.7202148,6.7592773-8.8613281V2.359375h3.6264648v16.1972656
		c0,8.53125-4.4921875,12.0341797-10.5092773,12.0341797c-5.6875,0-9.9741211-3.2558594-9.9741211-11.8696289V2.359375H13.3681641z"
		/>
</g>
<g>
	<path fill="#2BBFED" d="M35.6743164,21.4003906l-2.8847656,8.7373047h-3.7094727L38.5180664,2.359375h4.3276367
		l9.4790039,27.7783203h-3.8325195l-2.9677734-8.7373047H35.6743164z M44.7827148,18.5976563L42.0625,10.6020508
		c-0.6181641-1.8129883-1.0302734-3.4619141-1.4423828-5.0693359h-0.0825195
		c-0.4121094,1.6489258-0.8652344,3.3383789-1.4013672,5.0283203l-2.7202148,8.0366211H44.7827148z"/>
</g>
</svg>
